<?xml version="1.0" standalone="no"?>
<!DOCTYPE svg PUBLIC "-//W3C//DTD SVG 1.0//EN" "http://www.w3.org/TR/2001/REC-SVG-20010904/DTD/svg10.dtd">
<svg xmlns="http://www.w3.org/2000/svg" xmlns:xlink="http://www.w3.org/1999/xlink" id="body_1" width="135" height="62">

<g transform="matrix(0.7948718 0 0 0.7948718 0.66667056 -0)">
	<g transform="matrix(0.1 0 -0 -0.1 0 78)">
        <path d="M206 759C 187 744 172 713 151 642C 103 487 103 476 138 440L138 440L169 410L131 391C 111 380 88 365 82 357C 76 350 54 283 34 210C -21 10 -13 0 201 0C 427 0 428 0 476 165C 516 306 519 351 488 380C 476 391 461 400 456 400C 450 401 467 412 493 426C 547 454 550 459 584 585C 624 732 623 728 596 755C 571 780 568 780 402 780C 246 780 231 778 206 759zM460 665C 460 662 453 629 444 592C 426 518 408 496 350 479C 319 469 309 470 286 486C 255 505 255 512 286 615L286 615L301 670L381 670C 424 670 460 668 460 665zM338 333C 353 324 366 315 368 314C 373 311 329 149 318 128C 311 113 295 110 230 110C 184 110 150 114 150 120C 150 135 190 283 198 299C 205 311 281 348 303 349C 307 350 323 342 338 333z" stroke="none" fill="#000000" fill-rule="nonzero" />
        <path d="M749 765C 735 757 718 738 712 723C 682 650 540 106 540 67C 540 54 549 35 561 24C 579 7 601 5 733 2C 898 -2 956 10 978 53C 991 77 1046 277 1116 547C 1162 730 1163 747 1120 770C 1090 786 781 782 749 765zM1000 658C 1000 651 968 526 930 382C 891 237 860 116 860 114C 860 112 822 110 775 110C 714 110 690 113 690 123C 690 129 722 255 762 403L762 403L833 670L917 670C 977 670 1000 667 1000 658z" stroke="none" fill="#000000" fill-rule="nonzero" />
        <path d="M1270 753C 1243 728 1233 698 1171 470C 1070 93 1066 73 1079 44C 1095 7 1128 0 1278 0C 1432 0 1483 10 1506 45C 1519 65 1669 606 1685 693C 1690 717 1686 732 1670 753L1670 753L1649 780L1474 780L1300 780L1270 753zM1535 658C 1533 651 1504 539 1470 410C 1436 281 1404 160 1399 143L1399 143L1388 110L1304 110C 1256 110 1220 114 1220 120C 1220 132 1361 652 1367 663C 1369 667 1409 670 1455 670C 1518 670 1538 667 1535 658z" stroke="none" fill="#000000" fill-rule="nonzero" />
	</g>
</g>
</svg>