<?xml version="1.0" standalone="no"?>
<!DOCTYPE svg PUBLIC "-//W3C//DTD SVG 1.0//EN" "http://www.w3.org/TR/2001/REC-SVG-20010904/DTD/svg10.dtd">
<svg xmlns="http://www.w3.org/2000/svg" xmlns:xlink="http://www.w3.org/1999/xlink" id="body_1" width="154" height="62">

<g transform="matrix(0.7948718 0 0 0.7948718 0.5897378 -0)">
	<g transform="matrix(0.1 0 -0 -0.1 0 78)">
        <path d="M162 655C 128 586 100 525 100 520C 100 514 107 510 115 510C 123 510 130 507 130 504C 130 495 10 33 3 14C -1 3 11 0 69 0L69 0L139 0L154 52C 163 81 208 251 255 430C 302 609 343 761 345 768C 348 777 333 780 287 780L287 780L225 780L162 655z" stroke="none" fill="#000000" fill-rule="nonzero" />
        <path d="M459 765C 429 749 428 748 389 621C 348 489 351 450 404 422C 421 414 418 410 377 392C 323 368 321 364 280 216C 224 14 230 6 439 2C 592 -2 645 6 674 39C 692 58 744 230 756 306C 762 346 760 352 730 380L730 380L698 410L732 424C 784 446 796 467 829 584C 865 713 867 733 840 760C 822 778 807 780 653 780C 527 779 478 776 459 765zM706 653C 702 644 692 608 683 572C 668 510 665 507 621 488C 575 468 548 469 518 492C 501 504 502 510 522 588L522 588L544 670L628 670C 702 670 711 668 706 653zM586 331L618 312L590 213L563 115L490 112C 450 110 412 111 405 114C 396 117 400 144 418 213L418 213L443 309L489 329C 547 354 549 354 586 331z" stroke="none" fill="#000000" fill-rule="nonzero" />
        <path d="M987 760C 958 737 950 714 881 460C 782 93 776 63 793 36C 813 5 845 0 1007 0C 1144 0 1191 10 1218 43C 1232 60 1386 624 1396 696C 1401 730 1399 741 1379 759C 1358 779 1346 780 1184 780C 1027 780 1010 778 987 760zM1244 643C 1240 627 1207 503 1171 365L1171 365L1105 115L1017 112C 969 111 930 112 930 116C 930 124 1056 590 1071 638L1071 638L1082 670L1166 670L1250 670L1244 643z" stroke="none" fill="#000000" fill-rule="nonzero" />
        <path d="M1523 761C 1487 739 1491 750 1394 385C 1322 118 1315 82 1324 46C 1333 10 1376 0 1532 0C 1683 0 1727 10 1753 52C 1767 73 1843 341 1904 587C 1953 779 1952 780 1720 780C 1575 780 1551 778 1523 761zM1780 663C 1780 650 1649 155 1640 133C 1631 112 1624 110 1551 110C 1507 110 1469 113 1467 118C 1465 122 1484 204 1511 300C 1537 396 1571 519 1586 573L1586 573L1612 670L1696 670C 1742 670 1780 667 1780 663z" stroke="none" fill="#000000" fill-rule="nonzero" />
	</g>
</g>
</svg>