<?xml version="1.0" standalone="no"?>
<!DOCTYPE svg PUBLIC "-//W3C//DTD SVG 20010904//EN"
 "http://www.w3.org/TR/2001/REC-SVG-20010904/DTD/svg10.dtd">
<svg version="1.0" xmlns="http://www.w3.org/2000/svg"
 width="221.000000pt" height="78.000000pt" viewBox="0 0 221.000000 78.000000"
 preserveAspectRatio="xMidYMid meet">

<g transform="translate(0.000000,78.000000) scale(0.100000,-0.100000)"
fill="#000000" stroke="none">
<path d="M224 770 c-32 -13 -63 -57 -79 -114 -19 -71 -28 -136 -19 -136 5 0
39 12 76 26 66 25 68 27 81 72 l14 47 83 3 c64 2 81 0 78 -10 -3 -7 -11 -37
-19 -67 l-13 -53 -103 -51 c-130 -65 -132 -75 -32 -141 79 -53 76 -40 40 -169
l-18 -62 -83 -3 -83 -3 8 33 c4 18 9 42 12 54 4 17 -6 28 -46 53 -28 17 -55
31 -60 31 -5 0 -21 -47 -36 -105 -45 -167 -32 -178 202 -173 196 4 195 3 240
154 48 160 45 190 -26 232 l-33 20 48 22 c74 32 91 54 124 157 59 185 51 193
-175 192 -88 0 -170 -4 -181 -9z"/>
<path d="M730 753 c-27 -25 -37 -55 -99 -283 -101 -377 -105 -397 -92 -426 16
-37 49 -44 199 -44 154 0 205 10 228 45 15 23 168 579 180 656 5 31 2 39 -21
57 -26 21 -39 22 -196 22 l-169 0 -30 -27z m265 -95 c-2 -7 -31 -119 -65 -248
-34 -129 -66 -250 -71 -267 l-11 -33 -84 0 c-48 0 -84 4 -84 10 0 12 141 532
147 543 2 4 42 7 88 7 63 0 83 -3 80 -12z"/>
<path d="M1267 760 c-29 -23 -37 -46 -106 -300 -99 -367 -105 -397 -88 -424
20 -31 52 -36 214 -36 137 0 184 10 211 43 14 17 168 581 178 653 5 34 3 45
-17 63 -21 20 -33 21 -195 21 -157 0 -174 -2 -197 -20z m257 -117 c-4 -16 -37
-140 -73 -278 l-66 -250 -88 -3 c-48 -1 -87 0 -87 4 0 8 126 474 141 522 l11
32 84 0 84 0 -6 -27z"/>
<path d="M1803 761 c-36 -22 -32 -11 -129 -376 -72 -267 -79 -303 -70 -339 9
-36 52 -46 208 -46 151 0 195 10 221 52 14 21 90 289 151 535 49 192 48 193
-184 193 -145 0 -169 -2 -197 -19z m257 -98 c0 -13 -131 -508 -140 -530 -9
-21 -16 -23 -89 -23 -44 0 -82 3 -84 8 -2 4 17 86 44 182 26 96 60 219 75 273
l26 97 84 0 c46 0 84 -3 84 -7z"/>
</g>
</svg>
