<?xml version="1.0" standalone="no"?>
<!DOCTYPE svg PUBLIC "-//W3C//DTD SVG 20010904//EN"
 "http://www.w3.org/TR/2001/REC-SVG-20010904/DTD/svg10.dtd">
<svg version="1.0" xmlns="http://www.w3.org/2000/svg"
 width="219.000000pt" height="78.000000pt" viewBox="0 0 219.000000 78.000000"
 preserveAspectRatio="xMidYMid meet">

<g transform="translate(0.000000,78.000000) scale(0.100000,-0.100000)"
fill="#000000" stroke="none">
<path d="M223 770 c-12 -5 -28 -19 -37 -32 -8 -13 -53 -169 -101 -347 -95
-355 -95 -359 -32 -381 16 -5 90 -10 164 -10 142 0 192 11 212 48 19 35 91
304 91 338 0 54 -32 69 -165 71 -60 2 -111 3 -112 3 -1 0 11 46 26 103 l28
102 98 5 98 5 33 53 34 52 -158 -1 c-86 0 -167 -4 -179 -9z m147 -433 c0 -7
-6 -36 -14 -63 -8 -27 -21 -75 -30 -106 l-17 -58 -79 0 c-44 0 -80 1 -80 3 0
1 14 53 30 116 17 62 30 115 30 117 0 2 36 4 80 4 60 0 80 -3 80 -13z"/>
<path d="M710 753 c-26 -25 -37 -57 -108 -323 -98 -365 -99 -369 -73 -401 19
-23 24 -24 179 -27 185 -4 222 5 247 60 15 33 142 500 166 611 12 55 11 58
-11 82 -23 25 -25 25 -197 25 l-173 0 -30 -27z m270 -85 c-1 -2 -34 -127 -74
-278 l-73 -275 -87 -3 c-47 -1 -86 1 -86 5 0 8 137 518 145 541 3 8 31 12 90
12 47 0 85 -1 85 -2z"/>
<path d="M1245 757 c-29 -24 -58 -119 -160 -514 -50 -192 -49 -213 6 -232 18
-6 94 -11 171 -11 151 0 195 10 221 52 17 26 163 569 173 640 5 38 3 49 -15
67 -20 20 -31 21 -195 21 -168 0 -176 -1 -201 -23z m265 -94 c0 -5 -33 -129
-73 -278 l-72 -270 -88 -3 c-81 -3 -88 -1 -83 15 3 10 30 112 61 228 31 116
63 234 71 263 l15 52 85 0 c46 0 84 -3 84 -7z"/>
<path d="M1784 761 c-29 -18 -35 -31 -82 -202 -86 -310 -122 -454 -122 -486 0
-66 35 -76 238 -71 166 4 186 13 214 94 36 108 158 583 158 617 0 61 -19 67
-210 67 -144 0 -169 -2 -196 -19z m256 -98 c0 -5 -32 -131 -71 -280 l-72 -273
-84 0 c-72 0 -83 2 -83 17 0 10 32 136 72 280 l71 263 84 0 c45 0 83 -3 83 -7z"/>
</g>
</svg>
